<?xml version="1.0" encoding="utf-8"?>
<!-- Generator: Adobe Illustrator 16.0.0, SVG Export Plug-In . SVG Version: 6.00 Build 0)  -->
<!DOCTYPE svg PUBLIC "-//W3C//DTD SVG 1.1//EN" "http://www.w3.org/Graphics/SVG/1.1/DTD/svg11.dtd">
<svg version="1.1" id="All_glyphs" xmlns="http://www.w3.org/2000/svg" xmlns:xlink="http://www.w3.org/1999/xlink" x="0px" y="0px"
	 width="100px" height="100px" viewBox="0 0 100 100" enable-background="new 0 0 100 100" xml:space="preserve">
<g>
	<g>
		<path fill="#FFFFFF" stroke="#BDBB9A" stroke-miterlimit="10" d="M1.252,51.022c0-0.319,0.251-0.6,0.54-0.6H2.51l12.077,14.284
			h0.037V51.383c0-0.321,0.215-0.6,0.54-0.6h2.659c0.286,0,0.539,0.278,0.539,0.6v21.686c0,0.315-0.25,0.596-0.539,0.596h-0.683
			l-12.113-14.8H4.988v13.881c0,0.323-0.216,0.603-0.54,0.603H1.824c-0.289,0-0.539-0.279-0.539-0.603V51.022H1.252z"/>
		<path fill="#FFFFFF" stroke="#BDBB9A" stroke-miterlimit="10" d="M32.625,50.463c5.787,0,10.422,5.201,10.422,11.642
			c0,6.442-4.637,11.563-10.422,11.563c-5.785,0-10.387-5.121-10.387-11.563C22.205,55.664,26.804,50.463,32.625,50.463z
			 M32.625,69.466c3.666,0,6.651-3.321,6.651-7.401c0-4.078-3.021-7.439-6.651-7.439c-3.665,0-6.648,3.398-6.648,7.439
			C25.979,66.106,28.961,69.466,32.625,69.466z"/>
		<path fill="#FFFFFF" stroke="#BDBB9A" stroke-miterlimit="10" d="M49.374,54.663h-4.418c-0.324,0-0.542-0.28-0.542-0.601v-2.64
			c0-0.32,0.218-0.599,0.542-0.599h12.652c0.323,0,0.535,0.278,0.535,0.599v2.64c0,0.32-0.212,0.601-0.535,0.601h-4.423v18.082
			c0,0.323-0.252,0.603-0.538,0.603h-2.696c-0.287,0-0.538-0.279-0.538-0.603V54.663H49.374z"/>
		<path fill="#FFFFFF" stroke="#BDBB9A" stroke-miterlimit="10" d="M61.161,51.383c0-0.321,0.217-0.6,0.539-0.6h11.79
			c0.323,0,0.542,0.278,0.542,0.6v2.64c0,0.32-0.219,0.6-0.542,0.6h-8.588v5.279h7.184c0.291,0,0.543,0.281,0.543,0.601v2.684
			c0,0.36-0.252,0.597-0.543,0.597h-7.148v5.642h8.587c0.322,0,0.538,0.279,0.538,0.599v2.644c0,0.319-0.216,0.598-0.538,0.598
			h-11.79c-0.323,0-0.535-0.278-0.535-0.598V51.383H61.161z"/>
	</g>
	<g>
		<path fill="#33CD99" stroke="#FBEF55" stroke-miterlimit="10" d="M87.092,40.493l4.287-6.104l1.593-2.274l0,0l0,0l6.326-9.005
			c0,0,0.153-2.198-2.732-4.706c-2.92-2.505-4.799-1.806-4.799-1.806l-7.916,11.244l-9.044,12.884l-0.744,9.697l8.265-3.188
			L87.092,40.493L87.092,40.493L87.092,40.493z M81.709,46.187l-2.813,1.07c-0.352-0.556-0.735-1.067-1.456-1.695
			c-0.68-0.593-1.26-0.916-1.827-1.163l0.284-3.301l0.723-1.028c0,0,1.57-0.175,3.578,1.568c2,1.741,2.23,3.486,2.23,3.486
			L81.709,46.187z"/>
	</g>
</g>
</svg>
